<?xml version="1.0" standalone="no"?> <!DOCTYPE svg PUBLIC "-//W3C//DTD SVG 1.0//EN" "http://www.w3.org/TR/2001/REC-SVG-20010904/DTD/svg10.dtd" > <svg xmlns="http://www.w3.org/2000/svg" width="100%" height="100%">
<defs >
<font id="avenirlt86heavyoblique" horiz-adv-x="471" ><font-face
    font-family="Avenir LT 55 Roman"
    units-per-em="1000"
    panose-1="2 0 9 3 4 0 0 9 0 3"
    ascent="0"
    descent="0"
    alphabetic="0" />
<missing-glyph horiz-adv-x="296" />
<glyph unicode=" " glyph-name="space" horiz-adv-x="296" />
<glyph unicode="!" glyph-name="exclam" horiz-adv-x="296" d="M77 70Q82 102 108 125T168 148Q200 148 221 126T238 72Q233 40 207 17T147 -6Q131 -6 117 0T94 16T80 40T77 70ZM238 222H118L186 708H306L238 222Z" />
<glyph unicode="&quot;" glyph-name="quotedbl" horiz-adv-x="519" d="M395 708H497L460 444H358L395 708ZM218 708H320L283 444H181L218 708Z" />
<glyph unicode="#" glyph-name="numbersign" horiz-adv-x="592" d="M310 415L276 293H379L413 415H310ZM166 209H76L87 293H188L223 415H133L145 499H246L305 708H393L334 499H437L496 708H583L524 499H614L602 415H500L466 293H556L545 209H445L385 0H298L357
209H253L194 0H107L166 209Z" />
<glyph unicode="$" glyph-name="dollar" horiz-adv-x="592" d="M331 96Q352 100 372 108T407 129T434 159T448 199Q451 221 444 236T423 261T392 278T358 291L331 96ZM348 610Q313 604 282 581T246 519Q243 496 248 482T264 458T290 442T323 427L348 610ZM418
720H427Q478 720 529 703T613 651L517 558Q498 583 468 597T403 612L375 412L379 411Q419 400 457 386T524 350T568 293T575 208Q568 158 545 120T487 54T409 10T316 -11L306 -83H252L262 -12Q196 -13 139 8T41 77L145 170Q164 136 199 118T277 96L306 307L301
308Q261 320 225 334T163 372T125 429T119 513Q125 558 148 594T205 656T280 699T364 719L373 786H427L418 720Z" />
<glyph unicode="%" glyph-name="percent" horiz-adv-x="907" d="M723 740L801 702L283 -32L205 6L723 740ZM380 534Q385 572 363 598T302 624Q264 624 235 598T200 534Q195 496 217 470T277 444Q315 444 345 470T380 534ZM104 534Q109 573 128 606T177 665T241
705T316 720Q355 720 386 706T440 666T471 607T476 534Q470 495 451 462T403 403T339 363T264 348Q225 348 194 362T140 402T108 461T104 534ZM805 174Q810 212 788 238T727 264Q689 264 660 238T625 174Q619 136 641 110T702 84Q740 84 769 110T805 174ZM529 174Q534
213 553 246T601 305T666 345T741 360Q780 360 811 346T864 306T896 247T901 174Q895 135 876 102T828 43T764 3T689 -12Q650 -12 619 2T565 42T533 101T529 174Z" />
<glyph unicode="&amp;" glyph-name="ampersand" horiz-adv-x="741" d="M321 318Q301 307 283 296T248 270T221 238T207 197Q204 174 210 154T229 120T262 98T304 90Q345 90 379 112T444 160L321 318ZM411 618Q376 618 348 599T316 547Q314 533 318 520T330 493T348
467T368 444Q384 452 402 462T437 486T465 516T479 552Q483 581 463 599T411 618ZM597 167L727 0H572L508 81Q458 30 406 6T285 -18Q238 -18 197 -5T126 35T82 100T74 190Q79 226 95 256T135 312T190 357T255 389Q240 408 228 426T208 463T197 504T196 552Q202
595 223 628T275 682T345 715T424 726Q464 726 498 716T557 686T594 633T600 558Q596 525 580 498T541 448T490 407T434 375L531 252L626 372H767L597 167Z" />
<glyph unicode="&apos;" glyph-name="quotesingle" horiz-adv-x="296" d="M195 708H297L260 444H158L195 708Z" />
<glyph unicode="(" glyph-name="parenleft" horiz-adv-x="296" d="M373 680L372 676Q300 592 252 492T190 288Q175 184 195 84T263 -101L172 -156Q116 -61 93 52T88 288Q105 410 159 523T295 732L373 680Z" />
<glyph unicode=")" glyph-name="parenright" horiz-adv-x="296" d="M2 -104L4 -100Q75 -16 123 84T186 288Q200 392 180 492T112 676L203 732Q259 637 282 524T288 288Q271 166 217 53T80 -156L2 -104Z" />
<glyph unicode="*" glyph-name="asterisk" horiz-adv-x="463" d="M352 566L493 610L508 530L366 486L436 369L360 319L290 437L190 322L130 373L232 486L102 533L139 613L268 566L288 708H372L352 566Z" />
<glyph unicode="+" glyph-name="plus" horiz-adv-x="666" d="M331 354L361 574H463L433 354H653L639 252H419L388 32H286L317 252H97L111 354H331Z" />
<glyph unicode="," glyph-name="comma" horiz-adv-x="296" d="M127 138H249L127 -126H20L127 138Z" />
<glyph unicode="-" glyph-name="hyphen" horiz-adv-x="315" d="M335 195H88L116 297H363L335 195Z" />
<glyph unicode="." glyph-name="period" horiz-adv-x="296" d="M77 70Q82 102 108 125T168 148Q200 148 221 126T238 72Q233 40 207 17T147 -6Q131 -6 117 0T94 16T80 40T77 70Z" />
<glyph unicode="/" glyph-name="slash" horiz-adv-x="389" d="M67 -48L-11 -18L408 758L487 726L67 -48Z" />
<glyph unicode="0" glyph-name="zero" horiz-adv-x="592" d="M209 354Q204 321 203 278T209 195T241 129T310 102Q355 102 385 129T435 195T465 277T481 354Q485 387 486 430T480 513T448 579T380 606Q335 606 304 579T254 513T224 431T209 354ZM89 354Q100 438
122 497T171 597T230 662T291 699T349 716T396 720Q416 720 442 716T494 700T545 663T585 598T607 498T601 354Q589 270 568 211T518 111T459 46T398 9T341 -8T294 -12Q274 -12 248 -8T195 8T144 45T104 110T83 210T89 354Z" />
<glyph unicode="1" glyph-name="one" horiz-adv-x="592" d="M347 570L197 447L138 530L377 708H486L388 0H268L347 570Z" />
<glyph unicode="2" glyph-name="two" horiz-adv-x="592" d="M76 127L388 393Q402 405 417 418T444 447T466 478T478 513Q481 535 475 552T457 581T427 599T388 606Q343 606 311 580T265 510L141 520Q152 569 176 606T235 669T313 707T404 720Q452 720 491 708T558
671T599 608T605 519Q595 452 558 404T467 311L220 108H548L533 0H59L76 127Z" />
<glyph unicode="3" glyph-name="three" horiz-adv-x="592" d="M280 423H311Q337 423 362 426T408 439T443 468T463 519Q468 560 444 586T375 612Q339 612 308 592T258 534L136 568Q153 607 179 636T237 683T307 711T384 720Q430 720 469 708T536 673T577 614T584
531Q576 474 538 430T441 371V369Q507 359 535 311T555 197Q548 146 523 107T462 42T380 2T287 -12Q243 -12 205 -3T139 27T92 78T67 154L200 188Q205 144 229 120T302 96Q326 96 348 104T389 126T420 161T436 207Q441 241 430 262T397 295T349 311T294 315H265L280
423Z" />
<glyph unicode="4" glyph-name="four" horiz-adv-x="592" d="M409 538H407L191 252H370L409 538ZM355 144H54L70 263L417 708H553L490 252H593L578 144H475L455 0H335L355 144Z" />
<glyph unicode="5" glyph-name="five" horiz-adv-x="592" d="M588 600H303L280 459Q295 464 317 466T358 468Q410 468 451 452T518 404T556 330T561 233Q553 176 527 131T463 54T375 5T271 -12Q186 -12 132 28T64 150L195 184Q202 146 228 124T300 102Q327 102
350 111T393 136T424 175T440 223Q445 260 435 286T405 328T355 352T293 360Q254 360 214 351T140 326L200 708H603L588 600Z" />
<glyph unicode="6" glyph-name="six" horiz-adv-x="592" d="M202 231Q198 204 204 181T226 140T263 112T313 102Q340 102 364 112T409 139T442 180T460 231Q463 258 457 281T435 322T398 350T349 360Q322 360 297 350T252 323T219 282T202 231ZM535 708L329 446L330
444Q342 450 361 453T398 456Q445 456 481 438T542 389T576 317T580 230Q572 175 547 130T484 54T397 5T294 -12Q238 -12 194 4T121 52T80 128T75 229Q83 285 108 330T168 423L389 708H535Z" />
<glyph unicode="7" glyph-name="seven" horiz-adv-x="592" d="M140 708H621L606 598L240 0H99L470 594H124L140 708Z" />
<glyph unicode="8" glyph-name="eight" horiz-adv-x="592" d="M341 327Q317 327 294 319T253 296T223 261T207 216Q199 165 228 134T310 102Q362 102 399 133T445 216Q448 240 442 260T421 296T386 319T341 327ZM382 618Q336 618 307 590T271 522Q265 480 287
452T354 423Q374 423 392 430T426 451T452 483T465 522Q471 562 448 590T382 618ZM396 720Q441 720 478 708T542 672T581 614T587 534Q579 477 547 434T458 375L457 373Q482 368 503 353T539 315T560 263T562 201Q555 148 531 109T471 42T389 2T294 -12Q244 -12
203 1T133 42T91 108T84 201Q89 234 103 263T139 314T186 352T237 373L238 375Q186 391 166 434T153 534Q159 579 181 613T235 671T309 707T396 720Z" />
<glyph unicode="9" glyph-name="nine" horiz-adv-x="592" d="M488 477Q492 504 485 527T463 568T426 596T377 606Q350 606 325 596T280 569T247 528T230 477Q226 450 233 427T255 386T292 358T341 348Q368 348 393 358T438 385T471 426T488 477ZM155 0L361 262L359
264Q347 258 329 255T292 252Q245 252 209 270T148 319T114 391T110 478Q118 533 143 578T206 654T293 703T396 720Q451 720 495 704T568 656T609 580T614 479Q606 423 582 378T521 285L301 0H155Z" />
<glyph unicode=":" glyph-name="colon" horiz-adv-x="296" d="M124 409Q129 441 155 464T215 487Q247 487 268 465T285 411Q280 379 254 356T194 333Q178 333 165 339T141 355T127 379T124 409ZM77 70Q82 102 108 125T168 148Q200 148 221 126T238 72Q233 40 207
17T147 -6Q131 -6 117 0T94 16T80 40T77 70Z" />
<glyph unicode=";" glyph-name="semicolon" horiz-adv-x="296" d="M180 409Q190 441 219 464T282 487Q314 487 332 465T342 411Q332 379 303 356T240 333Q224 333 212 339T190 355T179 379T180 409ZM146 138H268L109 -126H2L146 138Z" />
<glyph unicode="&lt;" glyph-name="less" horiz-adv-x="666" d="M117 267L127 339L664 564L649 454L290 303L607 152L591 42L117 267Z" />
<glyph unicode="=" glyph-name="equal" horiz-adv-x="666" d="M640 264L626 162H84L98 264H640ZM665 444L651 342H109L123 444H665Z" />
<glyph unicode="&gt;" glyph-name="greater" horiz-adv-x="666" d="M633 339L623 267L85 42L101 152L460 303L143 454L158 564L633 339Z" />
<glyph unicode="?" glyph-name="question" horiz-adv-x="519" d="M199 70Q204 102 230 125T290 148Q322 148 343 126T360 72Q355 40 329 17T269 -6Q253 -6 239 0T216 16T202 40T199 70ZM239 209L246 264Q249 286 254 301T267 329T287 353T317 381L404 459Q433
484 438 524Q444 563 422 587T361 612Q319 612 288 584T247 514L120 524Q133 572 157 609T216 673T292 712T382 726Q427 726 463 713T525 676T561 615T565 531Q561 498 549 473T518 427T478 387T431 347Q415 334 404 324T384 304T372 280T364 247L359 209H239Z"
/>
<glyph unicode="@" glyph-name="at" horiz-adv-x="800" d="M745 133Q681 59 595 21T417 -18Q337 -18 271 9T158 86T90 203T81 353Q92 433 131 501T230 619T362 697T515 726Q581 726 641 705T746 641T812 538T823 397Q815 344 798 305T757 239T706 195T654 169T605
157T567 153Q525 153 510 170T495 207H493Q471 187 439 170T358 153Q326 153 301 165T260 200T238 253T237 321Q243 365 263 405T312 477T381 527T468 546Q508 546 533 533T569 489H571L585 534H679L614 337Q609 323 605 309T597 280Q595 262 599 253T619 243Q635
243 652 251T683 278T709 325T726 392Q734 452 721 497T678 574T602 620T499 636Q437 636 383 615T288 556T219 466T183 353Q173 287 188 235T237 147T323 92T438 72Q495 72 544 88T635 133H745ZM464 456Q439 456 418 447T381 421T355 382T341 335Q340 327 340
312T344 281T365 255T411 243Q439 243 459 254T493 282T514 321T525 364Q531 404 517 430T464 456Z" />
<glyph unicode="A" glyph-name="A" horiz-adv-x="722" d="M505 270L436 558L285 270H505ZM406 708H515L722 0H578L534 162H227L141 0H0L406 708Z" />
<glyph unicode="B" glyph-name="B" horiz-adv-x="648" d="M220 108H336Q360 108 387 111T439 125T482 156T505 212Q513 268 480 290T369 312H248L220 108ZM263 420H378Q441 420 476 444T516 509Q523 555 494 577T392 600H288L263 420ZM177 708H453Q493 708 530
699T595 668T637 612T645 530Q637 470 598 431T501 375L500 373Q533 369 559 355T603 318T627 266T630 202Q622 144 594 106T524 44T434 10T334 0H79L177 708Z" />
<glyph unicode="C" glyph-name="C" horiz-adv-x="685" d="M640 542Q607 584 573 598T501 612Q446 612 399 593T315 539T254 458T222 359Q215 302 225 254T263 171T332 116T429 96Q472 96 515 116T600 182L694 108Q636 42 563 12T412 -18Q330 -18 265 8T158 83T97
200T89 351Q101 436 139 505T233 624T361 699T516 726Q588 726 645 701T748 614L640 542Z" />
<glyph unicode="D" glyph-name="D" horiz-adv-x="759" d="M314 114Q373 114 427 127T525 169T597 243T635 354Q644 418 630 464T585 538T507 580T402 594H287L220 114H314ZM177 708H456Q526 708 588 687T694 621T758 511T767 354Q754 263 711 197T606 87T476 22T343
0H79L177 708Z" />
<glyph unicode="E" glyph-name="E" horiz-adv-x="611" d="M177 708H646L630 594H287L263 420H588L572 306H247L220 114H581L566 0H79L177 708Z" />
<glyph unicode="F" glyph-name="F" horiz-adv-x="574" d="M177 708H634L618 594H287L261 408H573L557 294H245L205 0H79L177 708Z" />
<glyph unicode="G" glyph-name="G" horiz-adv-x="778" d="M715 52Q574 -18 412 -18Q330 -18 265 8T158 83T97 200T89 351Q101 436 139 505T233 624T361 699T516 726Q597 726 665 707T782 637L676 543Q647 576 601 594T501 612Q446 612 399 593T315 539T254 458T222
359Q215 302 225 254T263 171T332 116T429 96Q477 96 520 105T600 133L623 300H478L494 414H765L715 52Z" />
<glyph unicode="H" glyph-name="H" horiz-adv-x="741" d="M177 708H303L264 426H595L634 708H760L662 0H536L579 312H248L205 0H79L177 708Z" />
<glyph unicode="I" glyph-name="I" horiz-adv-x="278" d="M174 708H300L202 0H76L174 708Z" />
<glyph unicode="J" glyph-name="J" horiz-adv-x="500" d="M453 196Q447 154 428 115T379 47T306 0T210 -18Q126 -18 78 21T25 145L147 173Q148 138 167 117T220 96Q274 96 298 132T332 233L398 708H524L453 196Z" />
<glyph unicode="K" glyph-name="K" horiz-adv-x="685" d="M177 708H303L261 408H267L602 708H772L396 381L696 0H519L260 348H253L205 0H79L177 708Z" />
<glyph unicode="L" glyph-name="L" horiz-adv-x="519" d="M177 708H303L220 114H521L506 0H79L177 708Z" />
<glyph unicode="M" glyph-name="M" horiz-adv-x="926" d="M180 708H372L492 212L752 708H942L844 0H724L805 588H803L507 0H419L285 588H283L202 0H82L180 708Z" />
<glyph unicode="N" glyph-name="N" horiz-adv-x="796" d="M177 708H344L614 182L616 180H614L616 182L689 708H815L717 0H557L282 543H280L205 0H79L177 708Z" />
<glyph unicode="O" glyph-name="O" horiz-adv-x="833" d="M222 359Q215 302 225 254T263 171T332 116T429 96Q484 96 531 116T616 171T677 254T709 359Q717 412 706 458T668 538T598 592T501 612Q446 612 399 593T315 539T254 458T222 359ZM89 351Q101 436 139
505T233 624T361 699T516 726Q599 727 664 702T773 627T834 509T841 355Q829 272 792 204T698 87T568 11T412 -18Q330 -18 265 8T158 83T97 200T89 351Z" />
<glyph unicode="P" glyph-name="P" horiz-adv-x="611" d="M336 401Q363 401 392 403T448 415T492 445T515 501Q520 534 509 553T477 583T430 597T378 600H288L260 401H336ZM177 708H415Q466 708 512 698T591 665T640 602T648 503Q638 436 610 395T539 332T444
301T335 293H245L205 0H79L177 708Z" />
<glyph unicode="Q" glyph-name="Q" horiz-adv-x="852" d="M495 612Q444 612 398 594T316 542T255 464T223 366Q216 312 227 266T266 186T334 133T427 114Q479 114 526 133T610 185T671 265T703 366Q711 419 699 464T660 542T591 593T495 612ZM839 0H427Q344 0
277 25T165 98T100 214T92 369Q103 447 141 512T237 625T366 699T514 726Q590 726 653 700T761 626T826 513T836 369Q828 313 809 271T763 196T707 141T650 104V102H853L839 0Z" />
<glyph unicode="R" glyph-name="R" horiz-adv-x="630" d="M359 408Q386 408 413 410T465 422T505 451T527 506Q531 537 521 556T491 584T446 597T397 600H288L261 408H359ZM177 708H423Q474 708 520 699T600 666T650 604T659 505Q648 428 599 376T468 313L613
0H461L338 300H246L205 0H79L177 708Z" />
<glyph unicode="S" glyph-name="S" horiz-adv-x="574" d="M503 556Q487 585 456 598T387 612Q365 612 344 607T304 591T274 563T258 521Q253 485 275 466T333 433T410 406T486 370T539 309T550 208Q543 151 516 109T450 38T361 -4T260 -18Q194 -18 136 4T41 78L149
170Q167 135 202 116T279 96Q301 96 324 102T366 120T399 150T416 193Q422 232 400 253T343 288T266 316T190 351T136 411T125 512Q132 567 160 607T229 673T318 713T416 726Q472 726 522 709T608 653L503 556Z" />
<glyph unicode="T" glyph-name="T" horiz-adv-x="574" d="M306 594H89L105 708H665L649 594H432L350 0H224L306 594Z" />
<glyph unicode="U" glyph-name="U" horiz-adv-x="722" d="M682 260Q673 196 644 145T571 57T474 2T358 -18Q297 -18 248 1T165 57T117 144T112 260L174 708H300L238 264Q235 238 239 210T258 157T301 118T375 102Q420 102 452 117T507 157T541 209T556 264L618
708H744L682 260Z" />
<glyph unicode="V" glyph-name="V" horiz-adv-x="667" d="M95 708H240L359 173L632 708H768L384 0H275L95 708Z" />
<glyph unicode="W" glyph-name="W" horiz-adv-x="981" d="M98 708H236L298 198H300L530 708H654L739 198H741L951 708H1079L775 0H655L566 539H564L325 0H209L98 708Z" />
<glyph unicode="X" glyph-name="X" horiz-adv-x="685" d="M303 370L114 708H273L404 446L605 708H758L479 370L685 0H525L379 299L152 0H0L303 370Z" />
<glyph unicode="Y" glyph-name="Y" horiz-adv-x="630" d="M294 303L84 708H242L377 426L592 708H742L420 303L378 0H252L294 303Z" />
<glyph unicode="Z" glyph-name="Z" horiz-adv-x="611" d="M50 114L495 594H123L139 708H668L652 594L204 114H591L576 0H35L50 114Z" />
<glyph unicode="[" glyph-name="bracketleft" horiz-adv-x="278" d="M349 654H259L157 -78H247L236 -156H44L167 732H359L349 654Z" />
<glyph unicode="\" glyph-name="backslash" horiz-adv-x="389" d="M191 758L395 -18L308 -48L104 726L191 758Z" />
<glyph unicode="]" glyph-name="bracketright" horiz-adv-x="278" d="M9 -78H99L201 654H111L121 732H313L190 -156H-1L9 -78Z" />
<glyph unicode="^" glyph-name="asciicircum" horiz-adv-x="666" d="M116 343L390 708H472L644 343H526L412 582L234 343H116Z" />
<glyph unicode="_" glyph-name="underscore" horiz-adv-x="500" d="M-17 -125L-10 -75H489L482 -125H-17Z" />
<glyph unicode="`" glyph-name="grave" horiz-adv-x="260" d="M255 564H161L40 708H176L255 564Z" />
<glyph unicode="a" glyph-name="a" horiz-adv-x="537" d="M390 215H365Q340 215 309 213T250 204T200 182T175 141Q173 124 179 113T195 93T220 82T250 78Q312 78 346 107T387 188L390 215ZM377 66H374Q342 25 300 7T209 -12Q176 -12 146 -3T93 24T60 69T54 132Q59
171 77 198T121 244T179 274T246 290T315 297T379 299H409L411 312Q417 357 389 379T313 402Q275 402 241 389T178 352L124 415Q170 456 226 474T339 492Q390 492 423 481T477 451T507 410T518 362T519 316T514 276L476 0H368L377 66Z" />
<glyph unicode="b" glyph-name="b" horiz-adv-x="630" d="M499 240Q503 268 497 294T476 340T436 372T378 384Q345 384 318 372T269 340T234 294T217 240Q213 212 219 186T240 140T280 108T338 96Q371 96 398 108T447 140T482 186T499 240ZM173 756H293L246 419H249Q259
431 275 443T312 467T361 485T422 492Q473 492 513 473T579 419T615 339T619 240Q612 187 590 141T531 61T449 8T347 -12Q296 -12 255 8T194 72H192L182 0H68L173 756Z" />
<glyph unicode="c" glyph-name="c" horiz-adv-x="482" d="M442 336Q424 358 403 371T358 384Q325 384 298 372T249 340T214 294T197 240Q193 212 199 186T220 140T260 108T318 96Q346 96 371 107T417 141L485 55Q465 37 440 24T389 3T342 -8T303 -12Q249 -12 204
6T128 57T83 136T77 240Q85 297 112 343T178 423T268 474T373 492Q419 492 463 475T537 419L442 336Z" />
<glyph unicode="d" glyph-name="d" horiz-adv-x="630" d="M197 240Q193 212 199 186T220 140T260 108T318 96Q351 96 378 108T427 140T462 186T479 240Q483 268 477 294T456 340T416 372T358 384Q325 384 298 372T249 340T214 294T197 240ZM458 72H456Q423 28
377 8T279 -12Q223 -12 182 7T115 61T80 141T77 240Q84 293 107 339T166 419T247 472T344 492Q378 492 403 485T446 467T477 444T497 419H500L547 756H667L562 0H448L458 72Z" />
<glyph unicode="e" glyph-name="e" horiz-adv-x="574" d="M450 288Q456 341 428 371T343 402Q289 402 254 371T204 288H450ZM191 198Q190 144 221 114T304 84Q349 84 382 102T442 149L519 84Q470 32 415 10T303 -12Q249 -12 204 6T128 57T83 136T77 240Q85 297
112 343T178 423T268 474T373 492Q423 492 462 475T526 424T560 343T562 231L557 198H191Z" />
<glyph unicode="f" glyph-name="f" horiz-adv-x="352" d="M163 378H64L78 480H177L187 548Q194 598 206 638T242 708T303 752T396 768Q437 768 471 761L449 659Q437 662 425 664T400 666Q375 666 359 658T333 637T317 605T309 567L297 480H408L394 378H283L231
0H111L163 378Z" />
<glyph unicode="g" glyph-name="g" horiz-adv-x="630" d="M359 384Q327 384 300 374T251 345T216 300T197 241Q193 212 200 187T223 143T264 113T319 102Q352 102 380 113T429 142T463 187T481 243Q490 306 458 345T359 384ZM628 480L567 43Q558 -22 535 -74T474
-163T381 -220T257 -240Q190 -240 133 -223T30 -161L116 -63Q147 -96 183 -114T271 -132Q314 -132 345 -120T396 -87T429 -37T446 29L450 64H448Q418 29 373 12T282 -6Q228 -6 187 13T118 66T81 144T77 240Q84 293 106 339T165 419T247 472T349 492Q400 492 441
472T502 408H504L514 480H628Z" />
<glyph unicode="h" glyph-name="h" horiz-adv-x="574" d="M245 413H247Q265 443 304 467T399 492Q447 492 478 476T527 434T548 374T548 303L506 0H386L419 243Q422 263 423 287T420 333T398 369T351 384Q321 384 299 374T261 347T236 308T224 262L188 0H68L173
756H293L245 413Z" />
<glyph unicode="i" glyph-name="i" horiz-adv-x="260" d="M142 643Q146 672 170 693T228 715Q261 715 280 695T296 643Q292 612 267 592T208 571Q175 571 157 592T142 643ZM136 480H256L190 0H70L136 480Z" />
<glyph unicode="j" glyph-name="j" horiz-adv-x="260" d="M142 643Q146 672 170 693T228 715Q261 715 280 695T296 643Q292 612 267 592T208 571Q175 571 157 592T142 643ZM256 480L185 -29Q179 -74 168 -112T135 -179T80 -224T-5 -240Q-22 -240 -37 -238T-69
-231L-45 -127Q-35 -129 -27 -130T-8 -132Q13 -132 27 -123T48 -98T59 -65T65 -30L136 480H256Z" />
<glyph unicode="k" glyph-name="k" horiz-adv-x="537" d="M173 756H293L227 281L439 480H593L357 262L540 0H381L224 245H222L188 0H68L173 756Z" />
<glyph unicode="l" glyph-name="l" horiz-adv-x="260" d="M175 756H295L190 0H70L175 756Z" />
<glyph unicode="m" glyph-name="m" horiz-adv-x="870" d="M129 480H243L233 405H235Q256 439 295 465T394 492Q507 492 532 403Q564 449 606 470T702 492Q750 492 781 476T828 432T848 367T846 286L807 0H687L724 272Q727 294 726 314T717 350T694 375T651 384Q623
384 602 374T566 346T543 306T531 260L495 0H375L414 286Q421 331 406 357T346 384Q316 384 294 374T256 347T231 308T219 262L183 0H63L129 480Z" />
<glyph unicode="n" glyph-name="n" horiz-adv-x="574" d="M134 480H248L238 403H240Q262 439 300 465T399 492Q447 492 478 476T527 434T548 374T548 303L506 0H386L419 243Q422 263 423 287T420 333T398 369T351 384Q321 384 299 374T261 347T236 308T224 262L188
0H68L134 480Z" />
<glyph unicode="o" glyph-name="o" horiz-adv-x="610" d="M197 240Q193 212 199 186T220 140T260 108T318 96Q351 96 378 108T427 140T462 186T479 240Q483 268 477 294T456 340T416 372T358 384Q325 384 298 372T249 340T214 294T197 240ZM77 240Q85 297 112
343T178 423T268 474T373 492Q427 492 472 474T548 423T593 344T599 240Q591 183 564 137T498 57T408 6T303 -12Q249 -12 204 6T128 57T83 136T77 240Z" />
<glyph unicode="p" glyph-name="p" horiz-adv-x="630" d="M499 240Q503 268 497 294T476 340T436 372T378 384Q345 384 318 372T269 340T234 294T217 240Q213 212 219 186T240 140T280 108T338 96Q371 96 398 108T447 140T482 186T499 240ZM134 480H248L238 408H240Q272
452 319 472T417 492Q472 492 513 473T581 419T616 339T619 240Q612 187 589 141T530 61T449 8T352 -12Q318 -12 293 -5T250 13T219 36T199 61H196L156 -228H36L134 480Z" />
<glyph unicode="q" glyph-name="q" horiz-adv-x="630" d="M197 240Q193 212 199 186T220 140T260 108T318 96Q351 96 378 108T427 140T462 186T479 240Q483 268 477 294T456 340T416 372T358 384Q325 384 298 372T249 340T214 294T197 240ZM530 -228H410L450 61H447Q436
49 421 37T384 13T335 -5T274 -12Q223 -12 183 7T117 61T81 141T77 240Q84 293 106 339T165 419T247 472T349 492Q400 492 441 472T502 408H504L514 480H628L530 -228Z" />
<glyph unicode="r" glyph-name="r" horiz-adv-x="389" d="M134 480H254L244 404H246Q272 446 312 469T400 492Q411 492 421 490T442 485L426 369Q411 373 397 375T369 378Q327 378 300 363T256 327T232 287T223 257L188 0H68L134 480Z" />
<glyph unicode="s" glyph-name="s" horiz-adv-x="444" d="M372 347Q344 396 285 396Q261 396 236 384T208 345Q204 323 222 313T268 296T328 282T387 259T429 216T438 142Q432 99 410 70T355 22T285 -4T210 -12Q154 -12 109 4T33 62L124 137Q143 111 167 95T229
78Q242 78 256 81T284 91T306 108T317 133Q320 158 303 170T258 189T198 203T138 224T96 265T86 337Q92 377 112 406T162 455T228 483T301 492Q349 492 393 476T462 419L372 347Z" />
<glyph unicode="t" glyph-name="t" horiz-adv-x="389" d="M64 378L78 480H177L197 619H317L297 480H429L415 378H283L254 168Q249 132 259 111T310 90Q326 90 345 93T377 105L363 4Q343 -5 315 -8T266 -12Q218 -12 189 -2T146 30T129 84T132 158L163 378H64Z" />
<glyph unicode="u" glyph-name="u" horiz-adv-x="574" d="M506 0H392L402 77H400Q378 41 340 15T241 -12Q193 -12 162 3T113 45T92 106T92 177L134 480H254L220 237Q218 217 217 193T220 147T241 111T289 96Q319 96 341 106T378 133T403 172T416 218L452 480H572L506 0Z" />
<glyph unicode="v" glyph-name="v" horiz-adv-x="519" d="M69 480H200L282 144H284L459 480H582L327 0H199L69 480Z" />
<glyph unicode="w" glyph-name="w" horiz-adv-x="796" d="M69 480H199L257 144H259L402 480H532L590 144H592L738 480H859L630 0H511L442 328H440L294 0H170L69 480Z" />
<glyph unicode="x" glyph-name="x" horiz-adv-x="537" d="M227 258L92 480H238L314 336L438 480H575L380 258L538 0H392L290 172L141 0H-1L227 258Z" />
<glyph unicode="y" glyph-name="y" horiz-adv-x="519" d="M69 480H201L289 147H291L457 480H582L274 -103Q256 -137 237 -162T195 -205T142 -231T72 -240Q25 -240 -17 -228L12 -120Q25 -125 40 -128T71 -132Q93 -132 108 -128T136 -116T156 -94T176 -61L207 -4L69 480Z" />
<glyph unicode="z" glyph-name="z" horiz-adv-x="482" d="M49 111L344 382V384H99L112 480H502L487 371L189 96H461L448 0H34L49 111Z" />
<glyph unicode="{" glyph-name="braceleft" horiz-adv-x="278" d="M46 332Q56 332 72 335T105 345T134 367T149 402L177 600Q182 634 199 658T239 699T284 724T323 732H414L403 648H348Q327 648 314 641T292 624T281 601T276 578L250 390Q246 361 232 342T201
312T167 295T138 289L137 287Q149 286 165 282T195 267T217 236T221 180L195 -2Q194 -13 194 -25T198 -47T214 -65T247 -72H302L291 -156H200Q184 -156 163 -148T125 -124T96 -83T90 -24L117 167Q120 191 111 206T89 229T59 241T33 244L46 332Z" />
<glyph unicode="|" glyph-name="bar" horiz-adv-x="222" d="M266 750L127 -250H25L164 750H266Z" />
<glyph unicode="}" glyph-name="braceright" horiz-adv-x="278" d="M311 244Q300 244 284 241T252 231T224 209T208 174L180 -24Q175 -58 158 -82T119 -123T73 -148T34 -156H-56L-45 -72H9Q30 -72 43 -65T65 -48T76 -25T81 -2L107 186Q111 215 125 234T156 264T190
280T219 287L220 289Q208 290 192 294T162 309T140 340T137 396L162 578Q163 589 163 601T159 623T143 641T110 648H55L66 732H157Q173 732 194 724T233 700T261 659T267 600L240 409Q237 385 245 370T268 347T297 335T324 332L311 244Z" />
<glyph unicode="~" glyph-name="asciitilde" horiz-adv-x="666" d="M606 301Q593 285 579 270T548 242T512 223T469 215Q441 215 418 224T372 248Q350 262 324 272T262 283Q245 283 231 277T204 261T183 239T166 215L142 299Q152 315 165 330T195 358T232 377T276
385Q305 385 332 376T388 353Q414 341 439 329T484 317Q499 317 512 323T538 339T560 361T582 385L606 301Z" />
<glyph unicode="&#x80;" glyph-name="Euro" horiz-adv-x="592" d="M580 74Q545 39 486 14T354 -12Q294 -12 255 5T191 52T158 125T154 218H75L127 308H167Q170 318 172 328Q176 338 178 349Q182 363 185 375T194 400H128L185 493H237Q299 603 392 661T595 720Q636
720 674 711T731 687L666 584Q630 613 563 613Q513 613 462 586T369 493H617L562 400H324Q313 373 305 343Q303 334 301 325Q297 316 296 308H512L459 218H285Q284 161 308 128T390 94Q432 94 464 108T525 149L580 74V74Z" />
</font>
</defs>
</svg>
